<svg xmlns="http://www.w3.org/2000/svg" viewBox="0 0 4435 2100"><path d="M1515 718Q1515 557 1463.5 422.5Q1412 288 1318.0 190.5Q1224 93 1093.0 39.0Q962 -15 802 -15Q643 -15 511.5 39.0Q380 93 286.5 190.5Q193 288 141.0 422.5Q89 557 89 718Q89 878 141.0 1013.0Q193 1148 286.5 1245.5Q380 1343 511.5 1397.5Q643 1452 802 1452Q962 1452 1093.0 1397.5Q1224 1343 1318.0 1245.5Q1412 1148 1463.5 1013.0Q1515 878 1515 718ZM1297 718Q1297 846 1262.0 948.0Q1227 1050 1162.5 1121.0Q1098 1192 1006.5 1230.0Q915 1268 802 1268Q689 1268 597.5 1230.0Q506 1192 441.0 1121.0Q376 1050 341.0 948.0Q306 846 306 718Q306 589 341.0 487.5Q376 386 441.0 315.0Q506 244 597.5 206.5Q689 169 802 169Q915 169 1006.5 206.5Q1098 244 1162.5 315.0Q1227 386 1262.0 487.5Q1297 589 1297 718Z" fill="#1E3D34" transform="translate(0,1750) scale(1,-1)"/><path d="M982 1016V0H865Q825 0 813 39L799 141Q766 106 730.0 77.0Q694 48 653.0 27.5Q612 7 566.0 -4.5Q520 -16 467 -16Q383 -16 319.5 12.0Q256 40 213.0 90.5Q170 141 148.0 212.0Q126 283 126 369V1016H322V369Q322 260 372.0 199.5Q422 139 525 139Q600 139 665.0 174.5Q730 210 787 272V1016Z" fill="#1E3D34" transform="translate(1525,1750) scale(1,-1)"/><path d="M342 1016V0H146V1016Z" fill="#1E3D34" transform="translate(2643,1750) scale(1,-1)"/><path d="M792 770Q744 833 688.5 858.0Q633 883 564 883Q430 883 356.5 786.5Q283 690 283 505Q283 408 299.5 339.5Q316 271 347.5 227.5Q379 184 425.0 163.5Q471 143 529 143Q614 143 676.0 181.0Q738 219 792 288ZM988 1476V0H870Q829 0 819 39L802 156Q737 79 654.5 32.5Q572 -14 464 -14Q377 -14 306.5 20.0Q236 54 186.0 119.5Q136 185 109.0 282.0Q82 379 82 505Q82 618 112.0 715.0Q142 812 199.0 883.0Q256 954 337.0 994.5Q418 1035 520 1035Q612 1035 676.5 1005.0Q741 975 792 920V1476Z" fill="#1E3D34" transform="translate(3131,1750) scale(1,-1)"/><path d="M 430 1440 C 710 1330, 965 1390, 1140 1535 C 1290 1660, 1450 1725, 1710 1720" fill="none" stroke="#1E3D34" stroke-width="112" stroke-linecap="round" stroke-linejoin="round"/><circle cx="2887.0" cy="315" r="86" fill="#C0714B"/></svg>