<svg xmlns="http://www.w3.org/2000/svg" viewBox="0 0 5149.95 2100"><path d="M 304 597 L 304 600 L 305 601 L 305 623 L 304 624 L 304 626 L 305 628 L 313 635 L 313 644 L 329 659 L 329 663 L 416 663 L 416 659 L 419 656 L 420 656 L 425 651 L 425 650 L 428 648 L 433 643 L 433 642 L 440 636 L 440 627 L 448 621 L 448 618 L 440 612 L 440 602 L 438 600 L 436 600 L 435 599 L 430 599 L 429 600 L 427 600 L 425 602 L 425 612 L 421 616 L 412 616 L 397 632 L 380 632 L 373 624 L 364 624 L 349 608 L 340 608 L 336 604 L 336 595 L 328 588 L 328 579 L 318 568 L 315 568 L 313 570 L 313 588 L 310 591 L 309 591 Z M 176 595 L 174 592 L 172 592 L 161 580 L 160 578 L 160 570 L 158 568 L 155 568 L 153 569 L 152 571 L 152 576 L 153 577 L 152 581 L 145 587 L 145 596 L 142 599 L 141 599 L 136 604 L 136 605 L 133 607 L 128 612 L 128 613 L 120 620 L 120 621 L 117 624 L 108 624 L 101 632 L 76 632 L 69 624 L 60 624 L 57 621 L 57 620 L 49 613 L 49 612 L 38 600 L 34 600 L 32 603 L 33 612 L 30 615 L 29 615 L 24 621 L 24 623 L 25 624 L 25 631 L 24 632 L 24 634 L 25 636 L 29 640 L 30 640 L 32 643 L 37 648 L 38 648 L 45 656 L 46 656 L 49 659 L 49 663 L 144 663 L 144 659 L 147 656 L 148 656 L 153 651 L 153 650 L 156 648 L 161 643 L 161 642 L 168 636 L 168 627 L 171 624 L 172 624 L 177 618 L 177 616 L 176 615 Z M 419 439 L 416 440 L 385 440 L 382 439 L 360 461 L 361 464 L 361 479 L 360 482 L 372 495 L 374 496 L 382 495 L 384 493 L 384 483 L 396 471 L 417 491 L 417 500 L 409 507 L 409 516 L 397 528 L 388 528 L 385 533 L 381 536 L 378 535 L 375 530 L 371 527 L 356 528 L 344 516 L 344 507 L 334 496 L 331 496 L 329 498 L 329 508 L 321 516 L 321 543 L 320 546 L 337 563 L 337 572 L 338 574 L 340 575 L 349 575 L 358 584 L 361 583 L 384 583 L 387 584 L 396 575 L 405 575 L 412 567 L 421 567 L 440 548 L 440 539 L 448 532 L 448 523 L 457 514 L 456 511 L 456 496 L 457 493 L 448 484 L 448 472 L 449 471 L 448 467 Z M 46 439 L 17 467 L 17 476 L 8 485 L 9 488 L 9 527 L 8 530 L 25 547 L 25 556 L 36 567 L 45 567 L 60 583 L 62 584 L 65 583 L 104 583 L 107 584 L 116 575 L 125 575 L 152 548 L 152 516 L 144 508 L 144 498 L 142 496 L 139 496 L 128 509 L 121 515 L 121 524 L 117 528 L 108 528 L 101 536 L 76 536 L 69 528 L 60 528 L 48 516 L 48 483 L 60 471 L 69 471 L 81 483 L 81 493 L 86 496 L 91 496 L 96 493 L 96 483 L 104 476 L 105 469 L 96 460 L 96 451 L 85 440 L 83 439 L 80 440 L 49 440 Z M 217 417 L 217 421 L 219 423 L 220 423 L 228 431 L 230 432 L 235 432 L 237 431 L 244 424 L 246 423 L 248 424 L 253 424 L 255 423 L 256 421 L 256 418 L 255 416 L 253 415 L 241 415 L 240 416 L 227 416 L 226 415 L 220 415 Z M 294 319 L 292 320 L 288 324 L 288 325 L 286 327 L 285 327 L 280 332 L 280 333 L 273 339 L 272 341 L 272 343 L 273 344 L 273 367 L 272 368 L 272 370 L 273 372 L 281 379 L 281 389 L 283 391 L 286 391 L 287 392 L 289 391 L 304 391 L 305 392 L 307 392 L 309 391 L 313 387 L 313 386 L 315 384 L 316 384 L 321 379 L 321 378 L 328 372 L 329 370 L 329 368 L 328 367 L 328 344 L 329 343 L 329 341 L 328 339 L 324 335 L 323 335 L 321 333 L 321 332 L 316 327 L 315 327 L 309 320 L 307 319 L 305 319 L 304 320 L 297 320 L 296 319 Z M 174 319 L 172 320 L 165 328 L 155 328 L 153 330 L 153 333 L 152 334 L 153 336 L 153 367 L 152 368 L 152 370 L 153 372 L 161 379 L 161 389 L 163 391 L 166 391 L 167 392 L 169 391 L 184 391 L 185 392 L 187 392 L 189 391 L 193 387 L 193 386 L 195 384 L 196 384 L 201 379 L 201 378 L 208 372 L 209 370 L 209 368 L 208 367 L 208 352 L 209 351 L 209 349 L 208 347 L 200 340 L 200 330 L 198 328 L 188 328 L 181 320 L 179 319 Z M 281 290 L 281 294 L 284 296 L 290 296 L 291 295 L 318 295 L 319 296 L 325 296 L 328 294 L 328 290 L 326 288 L 325 288 L 317 280 L 315 279 L 313 279 L 312 280 L 297 280 L 296 279 L 294 279 L 292 280 L 284 288 L 283 288 Z M 152 300 L 154 303 L 158 303 L 164 295 L 182 295 L 183 296 L 189 296 L 192 294 L 192 290 L 190 288 L 189 288 L 181 280 L 179 279 L 177 279 L 176 280 L 169 280 L 168 279 L 166 279 L 164 280 L 160 284 L 160 285 L 153 291 L 152 293 Z M 235 8 L 229 16 L 220 16 L 145 91 L 145 100 L 89 155 L 89 164 L 81 171 L 81 180 L 72 189 L 72 218 L 81 227 L 81 236 L 89 243 L 89 252 L 105 267 L 105 276 L 113 283 L 112 394 L 121 403 L 121 412 L 129 419 L 129 428 L 153 451 L 153 460 L 145 467 L 144 474 L 153 483 L 153 499 L 161 507 L 161 539 L 169 547 L 169 571 L 177 579 L 178 590 L 193 603 L 193 628 L 184 637 L 185 652 L 176 663 L 232 663 L 231 644 L 235 639 L 241 642 L 241 651 L 249 659 L 249 663 L 296 663 L 297 653 L 288 644 L 288 595 L 296 588 L 296 579 L 304 571 L 304 531 L 312 523 L 312 507 L 320 499 L 320 483 L 329 474 L 329 461 L 320 451 L 352 420 L 352 411 L 361 402 L 360 283 L 368 276 L 368 267 L 384 252 L 384 243 L 392 236 L 392 227 L 401 218 L 401 189 L 392 180 L 392 171 L 384 164 L 384 155 L 344 116 L 344 107 L 280 44 L 280 35 L 269 24 L 260 24 L 253 16 L 244 16 Z M 234 583 L 239 583 L 241 585 L 241 590 L 239 592 L 234 592 L 232 590 L 232 585 Z M 250 511 L 254 511 L 257 514 L 258 516 L 258 518 L 261 519 L 266 524 L 266 525 L 273 531 L 273 533 L 274 534 L 274 539 L 273 541 L 270 544 L 268 544 L 263 539 L 263 538 L 256 532 L 256 523 L 254 521 L 251 520 L 248 517 L 248 513 Z M 222 511 L 225 514 L 226 516 L 226 521 L 225 522 L 225 524 L 217 531 L 217 540 L 214 543 L 213 543 L 205 552 L 203 552 L 200 549 L 199 547 L 199 544 L 200 543 L 200 531 L 203 528 L 204 528 L 209 523 L 209 522 L 211 520 L 212 520 L 220 511 Z M 253 31 L 273 51 L 273 60 L 289 75 L 289 84 L 297 91 L 297 100 L 305 107 L 304 122 L 313 131 L 313 140 L 321 147 L 321 164 L 329 171 L 328 194 L 337 203 L 336 226 L 345 235 L 345 404 L 337 411 L 337 420 L 317 440 L 308 440 L 293 456 L 284 456 L 277 464 L 268 464 L 261 472 L 252 472 L 236 488 L 221 472 L 212 472 L 205 464 L 196 464 L 189 456 L 180 456 L 136 412 L 137 397 L 128 388 L 128 267 L 137 258 L 136 211 L 145 202 L 144 179 L 153 170 L 152 155 L 160 148 L 160 139 L 169 130 L 168 115 L 176 108 L 176 99 L 184 92 L 184 83 L 192 76 L 192 67 L 228 31 Z" fill="#1E3D34" fill-rule="evenodd" transform="translate(0,150) scale(2.710843)"/><g transform="translate(1433.25,180) scale(0.82)"><path d="M1515 718Q1515 557 1463.5 422.5Q1412 288 1318.0 190.5Q1224 93 1093.0 39.0Q962 -15 802 -15Q643 -15 511.5 39.0Q380 93 286.5 190.5Q193 288 141.0 422.5Q89 557 89 718Q89 878 141.0 1013.0Q193 1148 286.5 1245.5Q380 1343 511.5 1397.5Q643 1452 802 1452Q962 1452 1093.0 1397.5Q1224 1343 1318.0 1245.5Q1412 1148 1463.5 1013.0Q1515 878 1515 718ZM1297 718Q1297 846 1262.0 948.0Q1227 1050 1162.5 1121.0Q1098 1192 1006.5 1230.0Q915 1268 802 1268Q689 1268 597.5 1230.0Q506 1192 441.0 1121.0Q376 1050 341.0 948.0Q306 846 306 718Q306 589 341.0 487.5Q376 386 441.0 315.0Q506 244 597.5 206.5Q689 169 802 169Q915 169 1006.5 206.5Q1098 244 1162.5 315.0Q1227 386 1262.0 487.5Q1297 589 1297 718Z" fill="#1E3D34" transform="translate(0,1750) scale(1,-1)"/><path d="M982 1016V0H865Q825 0 813 39L799 141Q766 106 730.0 77.0Q694 48 653.0 27.5Q612 7 566.0 -4.5Q520 -16 467 -16Q383 -16 319.5 12.0Q256 40 213.0 90.5Q170 141 148.0 212.0Q126 283 126 369V1016H322V369Q322 260 372.0 199.5Q422 139 525 139Q600 139 665.0 174.5Q730 210 787 272V1016Z" fill="#1E3D34" transform="translate(1525,1750) scale(1,-1)"/><path d="M342 1016V0H146V1016Z" fill="#1E3D34" transform="translate(2643,1750) scale(1,-1)"/><path d="M792 770Q744 833 688.5 858.0Q633 883 564 883Q430 883 356.5 786.5Q283 690 283 505Q283 408 299.5 339.5Q316 271 347.5 227.5Q379 184 425.0 163.5Q471 143 529 143Q614 143 676.0 181.0Q738 219 792 288ZM988 1476V0H870Q829 0 819 39L802 156Q737 79 654.5 32.5Q572 -14 464 -14Q377 -14 306.5 20.0Q236 54 186.0 119.5Q136 185 109.0 282.0Q82 379 82 505Q82 618 112.0 715.0Q142 812 199.0 883.0Q256 954 337.0 994.5Q418 1035 520 1035Q612 1035 676.5 1005.0Q741 975 792 920V1476Z" fill="#1E3D34" transform="translate(3131,1750) scale(1,-1)"/><path d="M 430 1440 C 710 1330, 965 1390, 1140 1535 C 1290 1660, 1450 1725, 1710 1720" fill="none" stroke="#1E3D34" stroke-width="112" stroke-linecap="round" stroke-linejoin="round"/><circle cx="2887.0" cy="315" r="86" fill="#1E3D34"/></g></svg>